<svg xmlns="http://www.w3.org/2000/svg" width="20" height="20"><path style="stroke:none;fill-rule:nonzero;fill:#333;fill-opacity:1" d="M1.64 13.719a9.04 9.04 0 0 1-.792-3.399 9.077 9.077 0 0 1 2.425-6.562A9.095 9.095 0 0 1 9.63.836a9.083 9.083 0 0 1 6.36 2.246l-2.196.086a.347.347 0 0 0-.336.363c.008.188.16.336.348.336h.015l3.024-.117h.023a.35.35 0 0 0 .336-.363L17.086.352a.352.352 0 0 0-.363-.336.355.355 0 0 0-.336.363l.086 2.2A9.777 9.777 0 0 0 9.602.136a9.783 9.783 0 0 0-6.84 3.144 9.761 9.761 0 0 0-2.614 7.063 9.735 9.735 0 0 0 .856 3.664.3.3 0 0 0 .047.11.36.36 0 0 0 .293.155.357.357 0 0 0 .297-.554zM19 5.996c-.012-.027-.023-.055-.035-.078-.004-.004-.004-.004-.004-.008a.36.36 0 0 0-.3-.164.353.353 0 0 0-.29.563c1.442 3.238.918 7.171-1.64 9.933a9.08 9.08 0 0 1-6.356 2.922 9.09 9.09 0 0 1-6.36-2.246l2.2-.086a.352.352 0 0 0 .336-.363.355.355 0 0 0-.364-.336l-3.027.117h-.023a.35.35 0 0 0-.336.363l.117 3.035a.352.352 0 0 0 .352.336h.011a.352.352 0 0 0 .336-.363l-.086-2.2a9.755 9.755 0 0 0 6.871 2.442 9.792 9.792 0 0 0 6.844-3.144c2.762-2.985 3.32-7.23 1.754-10.723zm0 0"/></svg>